<svg width="121" height="26" viewBox="0 0 121 26" fill="none" xmlns="http://www.w3.org/2000/svg">
<rect width="26" height="26" fill="#2F5607"/>
<path d="M42.976 19.272C42.144 19.272 41.728 18.9147 41.728 18.2C41.728 17.9653 41.76 17.6987 41.824 17.4C41.8987 17.0907 42 16.696 42.128 16.216C42.2773 15.7147 42.3893 15.288 42.464 14.936C42.5387 14.584 42.576 14.2693 42.576 13.992C42.576 13.2667 42.256 12.904 41.616 12.904C41.4453 12.904 41.2693 12.9253 41.088 12.968L39.808 19H37.504L39.68 8.824L42.048 8.504L41.264 12.2H41.392C41.808 12.2 42.192 12.056 42.544 11.768C42.896 11.48 43.168 11.1227 43.36 10.696C43.5627 10.2587 43.664 9.832 43.664 9.416C43.664 8.92533 43.5147 8.52533 43.216 8.216C42.928 7.896 42.4907 7.736 41.904 7.736C41.04 7.736 40.2827 7.89067 39.632 8.2C38.9813 8.50933 38.4747 8.95733 38.112 9.544C37.76 10.1307 37.584 10.824 37.584 11.624C37.584 12.0187 37.6213 12.296 37.696 12.456C37.7707 12.6053 37.808 12.6907 37.808 12.712C37.232 12.712 36.8 12.5947 36.512 12.36C36.2347 12.1147 36.096 11.7147 36.096 11.16C36.096 10.4773 36.3733 9.816 36.928 9.176C37.4933 8.52533 38.2133 8.00267 39.088 7.608C39.9627 7.20267 40.8373 7 41.712 7C42.512 7 43.184 7.11733 43.728 7.352C44.272 7.58667 44.6773 7.90133 44.944 8.296C45.2107 8.68 45.344 9.10133 45.344 9.56C45.344 10.0613 45.1893 10.5627 44.88 11.064C44.5707 11.5653 44.1493 11.976 43.616 12.296C44.0213 12.4133 44.304 12.6107 44.464 12.888C44.6347 13.1547 44.72 13.4907 44.72 13.896C44.72 14.2053 44.6827 14.536 44.608 14.888C44.5333 15.2293 44.4267 15.656 44.288 16.168C44.2027 16.4987 44.1227 16.824 44.048 17.144C43.9733 17.464 43.936 17.7307 43.936 17.944C43.936 18.1893 43.9893 18.408 44.096 18.6C44.2133 18.792 44.368 18.9253 44.56 19C43.9093 19.1813 43.3813 19.272 42.976 19.272ZM47.8974 19.096C47.108 19.096 46.4947 18.8933 46.0574 18.488C45.62 18.072 45.4014 17.4267 45.4014 16.552C45.4014 15.816 45.5454 15.0053 45.8334 14.12C46.1214 13.2347 46.5907 12.472 47.2414 11.832C47.892 11.1813 48.7187 10.856 49.7214 10.856C50.8947 10.856 51.4814 11.368 51.4814 12.392C51.4814 12.9893 51.3107 13.5387 50.9694 14.04C50.628 14.5413 50.1747 14.9467 49.6094 15.256C49.044 15.5547 48.4414 15.7253 47.8014 15.768C47.78 16.088 47.7694 16.3013 47.7694 16.408C47.7694 16.9307 47.86 17.288 48.0414 17.48C48.2227 17.6613 48.516 17.752 48.9214 17.752C49.4974 17.752 49.988 17.6187 50.3934 17.352C50.8094 17.0853 51.2627 16.68 51.7534 16.136H52.2974C51.1134 18.1093 49.6467 19.096 47.8974 19.096ZM47.9294 15C48.324 14.9787 48.6974 14.84 49.0494 14.584C49.412 14.328 49.7 14.0027 49.9134 13.608C50.1374 13.2133 50.2494 12.7973 50.2494 12.36C50.2494 11.9227 50.116 11.704 49.8494 11.704C49.4654 11.704 49.0867 12.04 48.7134 12.712C48.3507 13.384 48.0894 14.1467 47.9294 15ZM54.038 19.096C53.2487 19.096 52.6353 18.8933 52.198 18.488C51.7607 18.072 51.542 17.4267 51.542 16.552C51.542 15.816 51.686 15.0053 51.974 14.12C52.2727 13.2347 52.742 12.472 53.382 11.832C54.0327 11.1813 54.854 10.856 55.846 10.856C56.486 10.856 56.9393 10.9947 57.206 11.272C57.4833 11.5493 57.622 11.9013 57.622 12.328C57.622 12.7013 57.542 12.9893 57.382 13.192C57.222 13.3947 57.0193 13.496 56.774 13.496C56.5927 13.496 56.406 13.432 56.214 13.304C56.342 12.952 56.406 12.6373 56.406 12.36C56.406 12.1573 56.3687 11.9973 56.294 11.88C56.2193 11.7627 56.1073 11.704 55.958 11.704C55.638 11.704 55.318 11.9653 54.998 12.488C54.678 13.0107 54.4167 13.6453 54.214 14.392C54.0113 15.1387 53.91 15.8107 53.91 16.408C53.91 16.9307 54.0007 17.288 54.182 17.48C54.3633 17.6613 54.6567 17.752 55.062 17.752C55.638 17.752 56.1287 17.6187 56.534 17.352C56.95 17.0853 57.4033 16.68 57.894 16.136H58.438C57.254 18.1093 55.7873 19.096 54.038 19.096ZM60.5626 10.136C60.2106 10.136 59.912 10.0133 59.6666 9.768C59.4213 9.52267 59.2986 9.224 59.2986 8.872C59.2986 8.52 59.4213 8.22133 59.6666 7.976C59.912 7.72 60.2106 7.592 60.5626 7.592C60.9146 7.592 61.2133 7.72 61.4586 7.976C61.7146 8.22133 61.8426 8.52 61.8426 8.872C61.8426 9.224 61.7146 9.52267 61.4586 9.768C61.2133 10.0133 60.9146 10.136 60.5626 10.136ZM59.4746 19.096C58.9626 19.096 58.5466 18.936 58.2266 18.616C57.9173 18.296 57.7626 17.816 57.7626 17.176C57.7626 16.9093 57.8053 16.5627 57.8906 16.136L58.9786 11H61.2826L60.1306 16.44C60.088 16.6 60.0666 16.7707 60.0666 16.952C60.0666 17.1653 60.1146 17.32 60.2106 17.416C60.3173 17.5013 60.488 17.544 60.7226 17.544C61.032 17.544 61.32 17.416 61.5866 17.16C61.8533 16.8933 62.0453 16.552 62.1626 16.136H62.8346C62.44 17.288 61.9333 18.072 61.3146 18.488C60.696 18.8933 60.0826 19.096 59.4746 19.096ZM63.3723 10.408H65.6763L65.4203 11.608C65.9536 11.1493 66.5776 10.92 67.2923 10.92C67.8896 10.92 68.3643 11.1173 68.7163 11.512C69.0683 11.9067 69.2443 12.552 69.2443 13.448C69.2443 14.2907 69.1216 15.144 68.8763 16.008C68.6309 16.8613 68.2149 17.592 67.6283 18.2C67.0416 18.7973 66.2683 19.096 65.3083 19.096C64.6256 19.096 64.1723 18.904 63.9483 18.52L63.1163 22.424L60.7002 23L63.3723 10.408ZM64.8123 17.704C65.3243 17.704 65.7456 17.464 66.0763 16.984C66.4176 16.504 66.6629 15.9333 66.8123 15.272C66.9723 14.6 67.0523 13.976 67.0523 13.4C67.0523 12.5147 66.7856 12.072 66.2523 12.072C66.0603 12.072 65.8629 12.1413 65.6603 12.28C65.4683 12.4187 65.2976 12.6107 65.1483 12.856L64.2043 17.336C64.2896 17.5813 64.4923 17.704 64.8123 17.704ZM71.8966 19.096C71.118 19.096 70.51 18.8933 70.0726 18.488C69.6353 18.072 69.4166 17.4267 69.4166 16.552C69.4166 15.816 69.5606 15.0053 69.8486 14.12C70.1366 13.2347 70.606 12.472 71.2566 11.832C71.9073 11.1813 72.734 10.856 73.7366 10.856C74.91 10.856 75.4966 11.368 75.4966 12.392C75.4966 12.9893 75.326 13.5387 74.9846 14.04C74.6433 14.5413 74.19 14.9467 73.6246 15.256C73.0593 15.5547 72.4566 15.7253 71.8166 15.768C71.7953 16.0027 71.7846 16.1627 71.7846 16.248C71.7846 17.1333 72.1153 17.576 72.7766 17.576C73.0753 17.576 73.3953 17.496 73.7366 17.336C74.078 17.176 74.3873 16.9733 74.6646 16.728C74.3766 18.3067 73.454 19.096 71.8966 19.096ZM71.9286 15C72.334 14.9893 72.7126 14.856 73.0646 14.6C73.4273 14.344 73.7153 14.0187 73.9286 13.624C74.1526 13.2187 74.2646 12.7973 74.2646 12.36C74.2646 11.9227 74.1313 11.704 73.8646 11.704C73.4913 11.704 73.118 12.0453 72.7446 12.728C72.382 13.4 72.11 14.1573 71.9286 15ZM82.9368 8.072C82.1794 8.36 81.5928 8.808 81.1768 9.416C80.7608 10.0133 80.5528 10.7493 80.5528 11.624C80.5528 12.0187 80.5901 12.296 80.6648 12.456C80.7394 12.6053 80.7768 12.6907 80.7768 12.712C80.2008 12.712 79.7688 12.5947 79.4808 12.36C79.2034 12.1147 79.0648 11.7147 79.0648 11.16C79.0648 10.4773 79.3421 9.816 79.8968 9.176C80.4621 8.52533 81.1821 8.00267 82.0568 7.608C82.9314 7.20267 83.8061 7 84.6808 7C84.8301 7 85.0434 7.01067 85.3208 7.032L85.4648 16.872L88.8248 7.08H90.8568L91.0008 16.872L94.3608 7.08H95.4808L91.0328 19H88.7288L88.5368 10.856L85.4968 19H83.1927L82.9368 8.072ZM96.6954 19.064C95.906 19.064 95.282 18.8613 94.8234 18.456C94.3647 18.0507 94.1354 17.4107 94.1354 16.536C94.1354 15.8107 94.2847 15.0053 94.5834 14.12C94.882 13.2347 95.362 12.472 96.0234 11.832C96.6847 11.1813 97.5167 10.856 98.5194 10.856C99.8847 10.856 100.567 11.7093 100.567 13.416V13.432C100.599 13.4427 100.658 13.448 100.743 13.448C101.095 13.448 101.501 13.3573 101.959 13.176C102.418 12.984 102.834 12.7547 103.207 12.488L103.351 12.92C103.042 13.2507 102.637 13.5333 102.135 13.768C101.645 13.992 101.106 14.152 100.519 14.248C100.434 15.2187 100.215 16.0667 99.8634 16.792C99.5114 17.5173 99.058 18.0773 98.5034 18.472C97.9487 18.8667 97.346 19.064 96.6954 19.064ZM97.3354 17.624C97.5914 17.624 97.8474 17.48 98.1034 17.192C98.3594 16.8933 98.5834 16.4933 98.7754 15.992C98.9674 15.48 99.106 14.9147 99.1914 14.296C98.9034 14.232 98.7594 14.008 98.7594 13.624C98.7594 13.1867 98.9247 12.8987 99.2554 12.76C99.234 12.408 99.1807 12.168 99.0954 12.04C99.01 11.9013 98.8607 11.832 98.6474 11.832C98.2954 11.832 97.954 12.088 97.6234 12.6C97.2927 13.112 97.026 13.7253 96.8234 14.44C96.6207 15.1547 96.5194 15.784 96.5194 16.328C96.5194 16.84 96.578 17.1867 96.6954 17.368C96.8127 17.5387 97.026 17.624 97.3354 17.624ZM102.479 11H104.783L104.575 11.992C104.937 11.672 105.263 11.4267 105.551 11.256C105.849 11.0853 106.169 11 106.511 11C106.852 11 107.119 11.1173 107.311 11.352C107.513 11.5867 107.615 11.8693 107.615 12.2C107.615 12.5093 107.513 12.7813 107.311 13.016C107.108 13.2507 106.825 13.368 106.463 13.368C106.228 13.368 106.068 13.3147 105.983 13.208C105.908 13.0907 105.849 12.9253 105.807 12.712C105.775 12.5733 105.743 12.472 105.711 12.408C105.679 12.344 105.62 12.312 105.535 12.312C105.311 12.312 105.119 12.36 104.959 12.456C104.809 12.5413 104.612 12.696 104.367 12.92L103.087 19H100.783L102.479 11ZM108.99 19.096C108.478 19.096 108.062 18.936 107.742 18.616C107.433 18.296 107.278 17.816 107.278 17.176C107.278 16.9093 107.321 16.5627 107.406 16.136L109.118 8.12L111.486 7.8L109.646 16.44C109.604 16.6 109.582 16.7707 109.582 16.952C109.582 17.1653 109.63 17.32 109.726 17.416C109.833 17.5013 110.004 17.544 110.238 17.544C110.548 17.544 110.836 17.416 111.102 17.16C111.369 16.8933 111.561 16.552 111.678 16.136H112.35C111.956 17.288 111.449 18.072 110.83 18.488C110.212 18.8933 109.598 19.096 108.99 19.096ZM113.592 19.096C112.984 19.096 112.477 18.888 112.072 18.472C111.667 18.056 111.464 17.4053 111.464 16.52C111.464 15.7307 111.619 14.904 111.928 14.04C112.248 13.1653 112.717 12.4293 113.336 11.832C113.965 11.224 114.712 10.92 115.576 10.92C116.013 10.92 116.339 10.9947 116.552 11.144C116.765 11.2933 116.872 11.4907 116.872 11.736V11.8L117.656 8.12L120.024 7.8L118.184 16.44C118.141 16.6 118.12 16.7547 118.12 16.904C118.12 17.3307 118.339 17.544 118.776 17.544C118.968 17.544 119.139 17.512 119.288 17.448C119.245 17.9813 119.053 18.392 118.712 18.68C118.381 18.9573 117.987 19.096 117.528 19.096C117.101 19.096 116.739 18.9893 116.44 18.776C116.152 18.552 115.96 18.216 115.864 17.768C115.224 18.6533 114.467 19.096 113.592 19.096ZM114.632 17.544C114.867 17.544 115.101 17.4427 115.336 17.24C115.581 17.0373 115.763 16.7547 115.88 16.392L115.944 16.136L116.728 12.472C116.632 12.0987 116.413 11.912 116.072 11.912C115.645 11.912 115.261 12.1627 114.92 12.664C114.579 13.1547 114.312 13.752 114.12 14.456C113.928 15.1493 113.832 15.7627 113.832 16.296C113.832 16.8293 113.907 17.1707 114.056 17.32C114.216 17.4693 114.408 17.544 114.632 17.544Z" fill="#64336C"/>
</svg>
