<svg width="24" height="24" viewBox="0 0 24 24" fill="none" xmlns="http://www.w3.org/2000/svg">
<mask id="mask0_693_3117" style="mask-type:alpha" maskUnits="userSpaceOnUse" x="0" y="0" width="24" height="24">
<rect width="24" height="24" fill="#D9D9D9"/>
</mask>
<g mask="url(#mask0_693_3117)">
<path d="M12 21L10.5 19.6248C7.91677 17.292 5.85437 15.2796 4.31277 13.5876C2.77117 11.8956 2.00037 10.108 2.00037 8.22481C2.00037 6.60801 2.52957 5.27041 3.58797 4.21201C4.64557 3.15441 5.94957 2.62561 7.49997 2.62561C8.36637 2.62561 9.19117 2.80041 9.97437 3.15001C10.7584 3.49961 11.4336 3.99121 12 4.62481C12.5504 3.99121 13.2172 3.49961 14.0004 3.15001C14.7836 2.80041 15.6084 2.62561 16.4748 2.62561C18.042 2.62561 19.3544 3.15881 20.412 4.22521C21.4704 5.29161 21.9996 6.62481 21.9996 8.22481C21.9996 10.108 21.2248 11.8956 19.6752 13.5876C18.1248 15.2796 16.058 17.292 13.4748 19.6248L12 21Z" fill="black"/>
</g>
</svg>
