<svg width="24" height="18" viewBox="0 0 24 18" fill="none" xmlns="http://www.w3.org/2000/svg">
<path d="M0 18V14.7706C0 14.1156 0.16363 13.5257 0.490891 13.001C0.818152 12.4771 1.24577 12.084 1.77375 11.8216C2.86462 11.2601 4.0096 10.8391 5.20868 10.5587C6.40951 10.2775 7.60947 10.1369 8.80855 10.1369C10.0094 10.1369 11.2093 10.282 12.4084 10.5722C13.6093 10.8624 14.7551 11.2789 15.846 11.8216C16.3731 12.084 16.8003 12.4771 17.1275 13.001C17.4548 13.5257 17.6184 14.1156 17.6184 14.7706V18H0ZM17.2912 10.2501C18.2546 10.3624 19.136 10.5542 19.9354 10.8256C20.7357 11.097 21.4993 11.429 22.2262 11.8216C22.8991 12.1963 23.3629 12.6177 23.6178 13.0859C23.8726 13.554 24 14.1156 24 14.7706V18H19.7456V14.5173C19.7456 13.7688 19.541 13.0059 19.1317 12.2287C18.7224 11.4523 18.1089 10.7928 17.2912 10.2501ZM8.80855 8.98585C7.57281 8.98585 6.53693 8.55545 5.70088 7.69465C4.86397 6.83295 4.44551 5.76593 4.44551 4.4936C4.44551 3.22037 4.86397 2.15335 5.70088 1.29255C6.53693 0.43085 7.57281 0 8.80855 0C10.0452 0 11.0819 0.43085 11.9188 1.29255C12.7549 2.15335 13.1729 3.22037 13.1729 4.4936C13.1729 5.76593 12.7549 6.83295 11.9188 7.69465C11.0819 8.55545 10.0452 8.98585 8.80855 8.98585ZM19.7181 4.4936C19.7181 5.76593 19.3001 6.83295 18.4641 7.69465C17.6271 8.55545 16.5904 8.98585 15.3538 8.98585C15.1539 8.98585 14.8768 8.95799 14.5225 8.90228C14.1682 8.84568 13.8911 8.78952 13.6913 8.73381C14.1634 8.13448 14.5313 7.4745 14.7948 6.75388C15.0592 6.03325 15.1914 5.27982 15.1914 4.4936C15.1914 3.72624 15.0592 2.98225 14.7948 2.26162C14.5313 1.541 14.1634 0.881018 13.6913 0.281692C13.9636 0.188244 14.2454 0.118158 14.5369 0.0714339C14.8275 0.0238113 15.0998 0 15.3538 0C16.5904 0 17.6271 0.43085 18.4641 1.29255C19.3001 2.15335 19.7181 3.22037 19.7181 4.4936ZM2.29083 15.6413H15.3276V14.7706C15.3276 14.5649 15.2822 14.3915 15.1914 14.2504C15.0998 14.1102 14.9816 14.0123 14.8367 13.9566C13.8907 13.5073 12.8949 13.1515 11.8495 12.8891C10.8048 12.6267 9.79121 12.4955 8.80855 12.4955C7.82764 12.4955 6.81444 12.6222 5.76895 12.8756C4.72346 13.1281 3.72772 13.4884 2.78172 13.9566C2.63685 14.0123 2.51904 14.1102 2.42828 14.2504C2.33664 14.3915 2.29083 14.5649 2.29083 14.7706V15.6413ZM8.80855 6.62718C9.40897 6.62718 9.90466 6.42591 10.2956 6.02336C10.6866 5.62082 10.8821 5.1109 10.8821 4.4936C10.8821 3.8754 10.6866 3.36503 10.2956 2.96249C9.90466 2.55994 9.40897 2.35867 8.80855 2.35867C8.20901 2.35867 7.71376 2.55994 7.32279 2.96249C6.93182 3.36503 6.73634 3.8754 6.73634 4.4936C6.73634 5.1109 6.93182 5.62082 7.32279 6.02336C7.71376 6.42591 8.20901 6.62718 8.80855 6.62718Z" fill="black"/>
</svg>
