<svg width="12" height="13" viewBox="0 0 12 13" fill="none" xmlns="http://www.w3.org/2000/svg">
<path d="M7.92032 9.32035L8.82035 8.42032L6.63002 6.24511V3.52988H5.36997V6.73977L7.92032 9.32035ZM6 12.5C5.17005 12.5 4.39002 12.3426 3.65991 12.0277C2.9298 11.7128 2.29473 11.2853 1.75471 10.7453C1.21469 10.2053 0.787231 9.5702 0.472339 8.84009C0.157446 8.10998 0 7.32995 0 6.5C0 5.67005 0.157446 4.89002 0.472339 4.15991C0.787231 3.4298 1.21469 2.79473 1.75471 2.25471C2.29473 1.71469 2.9298 1.28723 3.65991 0.972339C4.39002 0.657446 5.17005 0.5 6 0.5C6.82995 0.5 7.60998 0.657446 8.34009 0.972339C9.0702 1.28723 9.70527 1.71469 10.2453 2.25471C10.7853 2.79473 11.2128 3.4298 11.5277 4.15991C11.8426 4.89002 12 5.67005 12 6.5C12 7.32995 11.8426 8.10998 11.5277 8.84009C11.2128 9.5702 10.7853 10.2053 10.2453 10.7453C9.70527 11.2853 9.0702 11.7128 8.34009 12.0277C7.60998 12.3426 6.82995 12.5 6 12.5ZM6 11.2399C7.30997 11.2399 8.42746 10.7775 9.35245 9.85245C10.2775 8.92746 10.7399 7.80997 10.7399 6.5C10.7399 5.19003 10.2775 4.07254 9.35245 3.14755C8.42746 2.22255 7.30997 1.76005 6 1.76005C4.69003 1.76005 3.57254 2.22255 2.64755 3.14755C1.72255 4.07254 1.26005 5.19003 1.26005 6.5C1.26005 7.80997 1.72255 8.92746 2.64755 9.85245C3.57254 10.7775 4.69003 11.2399 6 11.2399Z" fill="black"/>
</svg>
